<svg xmlns="http://www.w3.org/2000/svg" viewBox="0 0 64 80" width="64" height="80" role="img" aria-label="Cannabis leaf">
  <defs>
    <path id="lf" fill="#4f7a43" d="M0 0 C2 -6 3 -10 2.5 -14 L5.5 -16 C3 -18 3.5 -21 2.8 -24 L5 -26 C2.4 -29 2.8 -32 2 -35 L3.6 -38 C1.4 -41 1.4 -43 0.8 -46 L0 -49 L-0.8 -46 C-1.4 -43 -1.4 -41 -3.6 -38 L-2 -35 C-2.8 -32 -2.4 -29 -5 -26 L-2.8 -24 C-3.5 -21 -3 -18 -5.5 -16 L-2.5 -14 C-3 -10 -2 -6 0 0 Z"/>
  </defs>
  <rect x="31" y="62" width="2" height="17" fill="#3c5f33"/>
  <g transform="translate(32 70)">
    <use href="#lf"/>
    <use href="#lf" transform="rotate(29) scale(0.86)"/>
    <use href="#lf" transform="rotate(-29) scale(0.86)"/>
    <use href="#lf" transform="rotate(57) scale(0.63)"/>
    <use href="#lf" transform="rotate(-57) scale(0.63)"/>
    <use href="#lf" transform="rotate(84) scale(0.42)"/>
    <use href="#lf" transform="rotate(-84) scale(0.42)"/>
  </g>
</svg>
