<svg xmlns="http://www.w3.org/2000/svg" viewBox="0 0 64 72" width="64" height="72" role="img" aria-label="Cannabis leaf marker">
  <g fill="currentColor">
    <path d="M32 64C32 50 32 44 32 38c-3 4-7 7-12 8 3-3 5-7 5-11-4 4-9 6-14 6 4-3 7-8 8-13-5 3-11 4-16 3 5-2 10-6 13-11-5 1-10 1-15-1 6-1 12-4 16-9-4-1-8-3-11-6 5 1 10 1 14-1-3-3-5-7-6-11 4 3 8 5 12 6-1-5-1-10 1-15 2 5 4 10 7 14 1-5 4-10 7-14 2 5 2 10 1 15 4-1 8-3 12-6-1 4-3 8-6 11 4 2 9 2 14 1-3 3-7 5-11 6 4 5 10 8 16 9-5 2-10 2-15 1 3 5 8 9 13 11-5 1-11 0-16-3 1 5 4 10 8 13-5 0-10-2-14-6 0 4 2 8 5 11-5-1-9-4-12-8 0 6 0 12 0 26z"/>
  </g>
  <rect x="31" y="56" width="2" height="12" fill="currentColor"/>
</svg>
